<svg width="104" height="18" viewBox="0 0 104 18" fill="none" xmlns="http://www.w3.org/2000/svg">
<g clip-path="url(#clip0_1_555)">
<path d="M23.6926 2.70818C23.6899 3.23188 23.5336 3.74302 23.2435 4.17712C22.9533 4.61122 22.5424 4.94882 22.0624 5.14732C21.5824 5.34585 21.055 5.39633 20.5466 5.29247C20.0382 5.18866 19.5717 4.93508 19.2059 4.5638C18.8401 4.19252 18.5914 3.72017 18.4912 3.20633C18.391 2.6925 18.4438 2.16021 18.6429 1.67663C18.8421 1.19306 19.1786 0.779872 19.61 0.4892C20.0414 0.198529 20.5485 0.0434032 21.0671 0.043396C21.4129 0.0443085 21.755 0.113959 22.074 0.248371C22.393 0.382784 22.6827 0.579327 22.9265 0.826775C23.1703 1.07422 23.3634 1.36773 23.4949 1.69054C23.6263 2.01336 23.6935 2.35915 23.6926 2.70818Z" fill="#CEE800"/>
<path d="M30.4801 2.70818C30.4788 3.23266 30.3237 3.745 30.0345 4.1807C29.7454 4.6164 29.335 4.95598 28.8551 5.15668C28.3752 5.35739 27.8472 5.41025 27.3376 5.30856C26.828 5.20692 26.3596 4.9553 25.9913 4.5854C25.623 4.2155 25.3714 3.74387 25.2681 3.22987C25.1647 2.71587 25.2143 2.18249 25.4106 1.69689C25.6069 1.21129 25.941 0.795182 26.3711 0.500949C26.8011 0.206716 27.3077 0.0475168 27.8271 0.043396C28.5259 0.0452382 29.1954 0.326805 29.6889 0.826351C30.1823 1.32589 30.4595 2.00264 30.4595 2.70818" fill="#CEE800"/>
<path d="M5.32811 11.7602L8.65642 7.67597C8.89757 7.38378 8.75289 7.0498 8.39458 7.0498H5.90006C5.76681 7.04845 5.63509 7.07856 5.51547 7.13778C5.39584 7.19695 5.29153 7.28359 5.21095 7.39071L2.92318 10.3338V7.59249C2.93352 7.51878 2.92675 7.44368 2.9034 7.37307C2.88004 7.30247 2.84075 7.23828 2.78862 7.18568C2.73649 7.13302 2.67295 7.09335 2.60301 7.06976C2.53308 7.04618 2.45869 7.03935 2.38569 7.0498H0.56649C0.493493 7.03935 0.419086 7.04618 0.349156 7.06976C0.279226 7.09335 0.215688 7.13302 0.163556 7.18568C0.111424 7.23828 0.0721276 7.30247 0.048775 7.37307C0.0254222 7.44368 0.0186509 7.51878 0.0289969 7.59249V17.0549C0.0186509 17.1286 0.0254222 17.2038 0.048775 17.2744C0.0721276 17.345 0.111424 17.4091 0.163556 17.4618C0.215688 17.5144 0.279226 17.5541 0.349156 17.5776C0.419086 17.6012 0.493493 17.6081 0.56649 17.5976H2.40636C2.47936 17.6081 2.55376 17.6012 2.62369 17.5776C2.69362 17.5541 2.75716 17.5144 2.80929 17.4618C2.86143 17.4091 2.90072 17.345 2.92407 17.2744C2.94742 17.2038 2.9542 17.1286 2.94385 17.0549V13.3882L6.01718 17.2358C6.08367 17.3409 6.17394 17.4286 6.28061 17.4915C6.38722 17.5543 6.50715 17.5908 6.63047 17.5976H9.22145C9.29113 17.5981 9.35947 17.5784 9.41844 17.5409C9.4774 17.5035 9.52449 17.4497 9.5542 17.3861C9.58391 17.3224 9.59493 17.2516 9.58607 17.1818C9.57715 17.112 9.54867 17.0463 9.50399 16.9923L5.32811 11.7602Z" fill="#229FFF"/>
<path d="M56.6308 7.0498H48.8512C48.7336 7.05167 48.6215 7.10008 48.539 7.1847C48.4565 7.26932 48.4102 7.38332 48.4102 7.50208V9.5337C48.4102 9.65246 48.4565 9.76646 48.539 9.85108C48.6215 9.9357 48.7336 9.98411 48.8512 9.98598H51.3043V17.1454C51.3043 17.2653 51.3514 17.3804 51.4354 17.4652C51.5195 17.55 51.6337 17.5977 51.7526 17.5977H53.7644C53.8233 17.5977 53.8817 17.586 53.9361 17.5632C53.9904 17.5405 54.0395 17.5072 54.081 17.4652C54.1225 17.4232 54.1558 17.3733 54.1784 17.3185C54.2009 17.2636 54.2122 17.2048 54.2122 17.1454V9.98598H56.6308C56.7497 9.98598 56.8639 9.93829 56.9479 9.85351C57.032 9.76868 57.0791 9.65365 57.0791 9.5337V7.50208C57.0791 7.38213 57.032 7.2671 56.9479 7.18227C56.8639 7.09749 56.7497 7.0498 56.6308 7.0498Z" fill="#229FFF"/>
<path d="M35.8757 11.8088C37.7224 10.0207 36.4959 7.02197 33.6568 7.02197H28.785C28.6673 7.02197 28.5544 7.06863 28.4706 7.15196C28.3868 7.23528 28.3388 7.34851 28.337 7.46727V17.1454C28.337 17.2653 28.3842 17.3804 28.4682 17.4652C28.5522 17.55 28.6661 17.5976 28.785 17.5976H34.1323C37.8396 17.5976 38.8319 13.2699 35.8757 11.8367V11.8088ZM31.1554 9.40149H33.0435C33.1561 9.39099 33.2697 9.40433 33.3769 9.44064C33.4841 9.47696 33.5826 9.53546 33.6662 9.61237C33.7497 9.68928 33.8165 9.78301 33.8622 9.88744C33.9078 9.99192 33.9314 10.1048 33.9314 10.219C33.9314 10.3332 33.9078 10.4461 33.8622 10.5506C33.8165 10.655 33.7497 10.7487 33.6662 10.8257C33.5826 10.9026 33.4841 10.9611 33.3769 10.9974C33.2697 11.0337 33.1561 11.047 33.0435 11.0365H31.1554V9.40149ZM33.6568 15.239H31.1554V13.2699H33.6568C35.1866 13.2699 35.2831 15.239 33.6568 15.239Z" fill="#229FFF"/>
<path d="M26.0424 7.4951C26.0406 7.37639 25.9926 7.26311 25.9088 7.17984C25.825 7.09651 25.7121 7.0498 25.5945 7.0498H23.2929C23.1753 7.0498 23.0624 7.09651 22.9786 7.17984C22.8948 7.26311 22.8468 7.37639 22.845 7.4951V17.1454C22.845 17.2048 22.8566 17.2636 22.8791 17.3185C22.9016 17.3733 22.9346 17.4232 22.9762 17.4652C23.0178 17.5072 23.0672 17.5405 23.1215 17.5632C23.1758 17.586 23.2341 17.5977 23.2929 17.5977H25.5945C25.7133 17.5977 25.8272 17.55 25.9112 17.4652C25.9952 17.3804 26.0424 17.2653 26.0424 17.1454V7.4951Z" fill="#229FFF"/>
<path d="M72.7969 7.0498H68.5524C68.4335 7.0498 68.3198 7.09749 68.2358 7.18227C68.1518 7.2671 68.1046 7.38213 68.1046 7.50208V17.1454C68.1046 17.2653 68.1518 17.3804 68.2358 17.4652C68.3198 17.55 68.4335 17.5977 68.5524 17.5977H70.5504C70.6693 17.5977 70.7835 17.55 70.8675 17.4652C70.9516 17.3804 70.9987 17.2653 70.9987 17.1454V14.2927H72.6663C75.0019 14.2927 76.8007 13.0473 76.8007 10.6887C76.8007 8.47615 74.9814 7.0498 72.7969 7.0498ZM72.5766 11.9202H71.0125V9.48503H72.5423C73.569 9.48503 73.9204 9.96508 73.9204 10.6678C73.9204 11.3705 73.6448 11.8993 72.5423 11.8993" fill="#229FFF"/>
<path d="M67.1533 17.0689L63.5978 7.44646C63.5568 7.32325 63.4764 7.21732 63.3688 7.14547C63.2617 7.07368 63.1337 7.04001 63.0051 7.04989H60.318C60.1899 7.03913 60.0623 7.07254 59.9563 7.14459C59.8497 7.21665 59.7708 7.32309 59.7319 7.44646L56.1693 17.0689C56.1395 17.1267 56.1252 17.1916 56.1288 17.2568C56.1318 17.3219 56.1529 17.385 56.1887 17.4392C56.2251 17.4934 56.2748 17.5367 56.3332 17.5646C56.3916 17.5926 56.4567 17.604 56.5207 17.5977H58.7882C58.8845 17.5934 58.9772 17.5609 59.0556 17.504C59.134 17.4472 59.1945 17.3685 59.2288 17.2777L59.6909 15.8861H63.6598L64.1214 17.2777C64.1562 17.3685 64.2167 17.4472 64.2946 17.504C64.373 17.5609 64.4662 17.5934 64.5625 17.5977H66.8295C66.8941 17.604 66.9586 17.5926 67.0175 17.5646C67.0759 17.5367 67.1256 17.4934 67.1615 17.4392C67.1979 17.385 67.2184 17.3219 67.2219 17.2568C67.2255 17.1916 67.2112 17.1267 67.181 17.0689H67.1533ZM60.5383 13.451L61.6889 9.9721L62.8396 13.451H60.5383Z" fill="#229FFF"/>
<path d="M20.6054 17.1454V7.50208C20.6054 7.38213 20.5582 7.2671 20.4743 7.18227C20.3903 7.09749 20.2763 7.0498 20.1575 7.0498H17.9387C17.8583 7.05198 17.7796 7.07324 17.7089 7.11192C17.6383 7.15061 17.5777 7.20565 17.5321 7.27248L13.3976 12.929V7.50208C13.3976 7.38213 13.3504 7.2671 13.2664 7.18227C13.1824 7.09749 13.0684 7.0498 12.9496 7.0498H10.9513C10.8337 7.05167 10.7215 7.10008 10.639 7.1847C10.5565 7.26932 10.5103 7.38332 10.5103 7.50208V17.1454C10.5103 17.2641 10.5565 17.3781 10.639 17.4628C10.7215 17.5474 10.8337 17.5958 10.9513 17.5977H13.1771C13.258 17.5948 13.3371 17.5724 13.4078 17.5325C13.4785 17.4925 13.5388 17.4362 13.5836 17.368L17.7182 11.7184V17.1454C17.7182 17.2653 17.7654 17.3804 17.8493 17.4652C17.9333 17.55 18.0473 17.5977 18.166 17.5977H20.1851C20.2439 17.5977 20.3021 17.586 20.3565 17.5632C20.4108 17.5405 20.4602 17.5072 20.5018 17.4652C20.5434 17.4232 20.5764 17.3733 20.5989 17.3185C20.6214 17.2636 20.633 17.2048 20.633 17.1454H20.6054Z" fill="#229FFF"/>
<path d="M47.7419 15.6008L46.5428 14.3275C46.5015 14.2753 46.4491 14.2333 46.3894 14.2044C46.3298 14.1755 46.2644 14.1605 46.1983 14.1605C46.0852 14.1621 45.9769 14.2069 45.8951 14.2857C45.2548 14.8629 44.4243 15.178 43.566 15.1694C42.8453 15.1333 42.1659 14.8189 41.6685 14.2911C41.1711 13.7634 40.8936 13.0627 40.8936 12.3341C40.8936 11.6056 41.1711 10.9049 41.6685 10.3772C42.1659 9.84941 42.8453 9.53493 43.566 9.49888C44.4289 9.49976 45.26 9.82748 45.8951 10.4173C45.9769 10.4962 46.0852 10.541 46.1983 10.5425C46.2642 10.5412 46.329 10.5256 46.3885 10.4967C46.4479 10.4679 46.5006 10.4266 46.5428 10.3756L47.7419 9.09533C47.82 9.01277 47.8643 8.90338 47.8659 8.78922C47.8645 8.66612 47.815 8.54855 47.7281 8.46217C47.188 7.91069 46.5438 7.4744 45.8336 7.17921C45.1233 6.88396 44.3615 6.73588 43.5935 6.74364C42.1168 6.74364 40.7006 7.33593 39.6565 8.39022C38.6123 9.44452 38.0257 10.8744 38.0257 12.3654C38.0257 13.8564 38.6123 15.2863 39.6565 16.3406C40.7006 17.3949 42.1168 17.9872 43.5935 17.9872C44.3618 17.9966 45.124 17.8492 45.8345 17.5539C46.5449 17.2586 47.189 16.8215 47.7281 16.2687C47.7693 16.2279 47.8021 16.1792 47.8245 16.1254C47.8468 16.0717 47.8584 16.0139 47.8584 15.9556C47.8584 15.8973 47.8468 15.8395 47.8245 15.7858C47.8021 15.732 47.7693 15.6833 47.7281 15.6425L47.7419 15.6008Z" fill="#229FFF"/>
<path d="M83.471 12.7413C83.4685 13.2649 83.3122 13.7761 83.0222 14.2102C82.7318 14.6443 82.3209 14.9819 81.8408 15.1804C81.3608 15.3789 80.8336 15.4294 80.3254 15.3255C79.8167 15.2217 79.3505 14.9681 78.9847 14.5969C78.6189 14.2256 78.3699 13.7532 78.27 13.2394C78.1696 12.7255 78.2224 12.1933 78.4216 11.7097C78.6204 11.2261 78.957 10.8129 79.3884 10.5222C79.8203 10.2316 80.327 10.0765 80.8459 10.0765C81.1912 10.0774 81.5334 10.147 81.8526 10.2814C82.1718 10.4158 82.4613 10.6124 82.7051 10.8598C82.949 11.1073 83.1421 11.4008 83.2733 11.7236C83.4049 12.0464 83.4721 12.3922 83.471 12.7413Z" fill="#CEE800"/>
<path d="M93.0564 6.98032H85.1734C85.0541 6.98213 84.9398 7.03132 84.8563 7.11728C84.7723 7.2032 84.7252 7.31895 84.7252 7.43952V9.41549C84.7252 9.53544 84.7723 9.65047 84.8563 9.7353C84.9403 9.82013 85.0546 9.86776 85.1734 9.86776H87.6607V17.2081C87.6607 17.3287 87.7079 17.4445 87.7914 17.5304C87.8754 17.6163 87.9891 17.6655 88.109 17.6673H90.1762C90.2961 17.6655 90.4108 17.6166 90.4959 17.5308C90.5804 17.4451 90.6291 17.3293 90.6306 17.2081V9.86776H93.0841C93.203 9.86776 93.3167 9.82013 93.4007 9.7353C93.4847 9.65047 93.5319 9.53544 93.5319 9.41549V7.43952C93.5319 7.31895 93.4847 7.2032 93.4012 7.11728C93.3172 7.03132 93.2035 6.98213 93.0841 6.98032" fill="#229FFF"/>
<path d="M99.7749 10.5287H98.1145V9.33896H102.201C102.32 9.33715 102.434 9.28796 102.518 9.20205C102.601 9.11608 102.648 9.00032 102.648 8.87975V7.41865C102.65 7.35865 102.639 7.29911 102.616 7.24346C102.594 7.18775 102.561 7.13706 102.52 7.09434C102.478 7.05161 102.428 7.01768 102.373 6.99451C102.319 6.97134 102.26 6.95944 102.201 6.95944H95.6129C95.5534 6.95944 95.4945 6.97134 95.4397 6.99451C95.3849 7.01768 95.3352 7.05161 95.2937 7.09434C95.2522 7.13706 95.2194 7.18775 95.1969 7.24346C95.1748 7.29911 95.1641 7.35865 95.1651 7.41865V17.2081C95.1651 17.3287 95.2117 17.4444 95.2957 17.5304C95.3798 17.6163 95.4935 17.6655 95.6129 17.6673H99.9266C102.139 17.6673 103.992 16.4358 103.992 14.1885C103.965 11.8089 102.153 10.5287 99.7749 10.5287ZM99.6371 15.1904H98.1145V12.7413H99.6991C100.788 12.7413 101.077 13.3744 101.077 13.9867C101.043 14.7033 100.685 15.1904 99.6371 15.1904Z" fill="#229FFF"/>
</g>
<defs>
<clipPath id="clip0_1_555">
<rect width="104" height="18" fill="white"/>
</clipPath>
</defs>
</svg>
